<?xml version="1.0" standalone="no"?>
<!DOCTYPE svg PUBLIC "-//W3C//DTD SVG 20010904//EN"
 "http://www.w3.org/TR/2001/REC-SVG-20010904/DTD/svg10.dtd">
<svg version="1.0" xmlns="http://www.w3.org/2000/svg"
 width="902.000000pt" height="886.000000pt" viewBox="0 0 902.000000 886.000000"
 preserveAspectRatio="xMidYMid meet">
<metadata>
Created by potrace 1.16, written by Peter Selinger 2001-2019
</metadata>
<g transform="translate(0.000000,886.000000) scale(0.100000,-0.100000)"
fill="#000000" stroke="none">
<path d="M3629 8480 c-669 -4 -799 -7 -813 -19 -47 -40 -46 -4 -46 -1105 l0
-1035 -832 -3 c-900 -3 -862 -1 -887 -55 -8 -17 -11 -392 -11 -1224 l0 -1201
29 -29 29 -29 946 0 c845 0 946 -2 960 -16 16 -15 20 -29 16 -49 -21 -102 -30
-193 -30 -295 0 -110 3 -129 21 -160 l22 -35 -51 -45 c-54 -48 -72 -90 -72
-168 0 -52 10 -57 148 -73 107 -13 136 -23 128 -45 -7 -18 -29 -216 -66 -601
-18 -184 -30 -293 -46 -432 -11 -101 -12 -136 -3 -147 8 -9 33 -14 80 -14 l68
0 22 73 c12 39 31 101 41 137 11 36 23 76 28 90 4 14 13 45 20 70 7 25 16 56
20 70 5 14 18 59 30 100 12 41 26 86 30 100 16 47 69 225 76 253 3 15 11 30
17 34 20 12 192 32 201 23 4 -4 1 -56 -8 -117 -8 -59 -31 -215 -51 -346 -19
-131 -35 -250 -35 -264 0 -33 79 -112 139 -139 22 -10 41 -21 41 -26 0 -4 -15
-14 -32 -22 -41 -17 -73 -51 -93 -99 -8 -21 -26 -42 -38 -46 -36 -14 -57 -45
-87 -131 -45 -124 -94 -205 -174 -285 -44 -45 -109 -101 -144 -124 -34 -23
-68 -54 -75 -70 -6 -16 -49 -60 -93 -99 -89 -78 -114 -118 -114 -181 0 -27 -8
-52 -21 -71 -19 -25 -21 -37 -16 -90 8 -76 17 -93 62 -114 188 -89 559 -41
842 109 127 67 629 406 647 436 29 49 21 248 -16 419 -5 25 -13 70 -17 100 -4
30 -12 64 -16 74 -6 13 -3 23 9 32 14 10 22 45 36 156 18 138 28 201 49 318 6
30 19 102 29 160 16 92 22 106 43 117 13 6 116 37 229 68 236 66 512 157 558
185 29 18 32 24 32 72 0 29 -5 70 -11 92 -8 29 -8 41 1 46 6 4 100 5 208 3
157 -3 222 -9 317 -28 118 -24 996 -196 1210 -237 61 -11 115 -25 122 -30 13
-10 13 -12 63 -178 17 -58 35 -116 40 -130 5 -14 23 -72 40 -130 18 -58 40
-130 49 -160 10 -30 28 -89 41 -130 78 -258 81 -267 107 -279 31 -14 56 -14
106 1 l39 12 -6 70 c-3 39 -10 109 -16 156 -9 80 -19 162 -41 360 -9 87 -21
205 -38 390 -6 58 -15 143 -21 189 -6 46 -9 90 -6 97 4 11 33 14 121 14 l115
0 11 28 c17 45 1 101 -62 217 -32 61 -65 117 -71 127 -12 16 -12 17 22 173 5
22 14 65 20 95 7 30 16 71 20 90 5 19 14 62 20 95 12 62 21 108 38 185 14 63
29 137 53 265 11 61 27 142 35 182 7 39 16 89 19 110 3 21 8 44 11 52 2 8 7
30 10 50 21 136 75 377 115 516 5 17 15 55 22 85 l13 55 51 3 c42 2 52 7 62
28 17 38 14 71 -6 70 -23 -1 -282 15 -308 19 -11 2 -46 14 -78 27 -56 22 -58
24 -51 53 12 50 9 86 -15 170 -12 44 -26 130 -31 192 -5 61 -14 122 -21 135
-7 13 -15 87 -19 175 -7 143 -9 154 -33 186 -14 19 -53 52 -86 73 l-61 39 -2
1057 c-3 1055 -3 1057 -24 1085 -13 18 -37 32 -65 40 -46 12 -2085 14 -3790 3z
m854 -296 c90 -4 127 -10 124 -18 -5 -16 -424 -21 -443 -5 -11 9 -11 15 -3 25
8 10 34 12 102 9 51 -3 150 -8 220 -11z m-1563 -323 c0 -211 -4 -322 -10 -326
-6 -4 -17 -1 -25 5 -13 10 -15 59 -15 289 0 278 7 351 35 351 13 0 15 -47 15
-319z m920 249 c217 -5 469 -13 560 -17 149 -7 158 -8 90 -14 -190 -16 -1462
-6 -1491 11 -52 33 110 37 841 20z m2225 -661 c17 -10 62 -24 101 -32 46 -9
85 -25 113 -45 23 -17 64 -38 91 -47 58 -19 72 -34 105 -110 24 -54 27 -70 26
-183 -1 -172 -12 -223 -63 -279 -22 -23 -25 -23 -112 16 -38 18 -51 19 -105
10 -104 -16 -202 -55 -219 -85 -8 -14 -11 -14 -30 6 -32 34 -79 131 -86 177
-3 23 -9 48 -12 57 -5 12 1 16 23 16 21 0 33 7 42 23 28 53 -51 124 -121 111
-16 -3 -28 -4 -28 -2 0 2 -7 67 -15 145 -17 158 -12 195 21 164 5 -5 27 -12
49 -16 34 -5 44 -2 60 14 10 12 24 21 31 21 8 0 20 13 29 29 22 44 38 46 100
10z m732 -161 c55 -51 56 -170 3 -264 -37 -66 -36 -71 29 -274 25 -76 41 -144
41 -173 0 -49 -78 -276 -155 -447 -18 -41 -57 -131 -85 -200 -29 -69 -99 -228
-155 -355 -127 -284 -182 -442 -219 -629 -9 -44 -21 -85 -28 -93 -6 -7 -9 -15
-7 -17 4 -4 94 -30 274 -79 42 -12 51 -18 56 -43 9 -41 8 -144 -1 -174 -7 -22
-8 -20 -9 15 l-2 40 -24 -52 c-13 -28 -29 -54 -34 -58 -18 -11 -12 -22 14 -27
19 -4 25 -1 25 13 0 10 5 21 10 24 14 9 12 -21 -2 -48 -7 -12 -13 -23 -14 -24
-2 -6 -233 115 -274 144 -25 16 -56 33 -70 36 -170 38 -246 75 -328 155 -26
26 -60 53 -75 60 -39 17 -77 16 -77 -4 0 -22 -24 -13 -172 68 -130 71 -154 89
-143 108 9 14 27 13 64 -6 18 -9 35 -14 38 -11 8 9 -7 27 -23 27 -8 0 -14 5
-14 10 0 6 -16 10 -37 8 -35 -3 -37 -1 -44 31 -5 22 -2 45 6 65 8 17 30 81 50
143 62 197 249 613 393 878 36 66 101 173 145 239 l79 119 39 -45 c47 -55 99
-78 180 -78 48 0 61 -3 66 -17 3 -10 14 -37 24 -60 11 -23 19 -47 19 -52 0 -6
11 -11 25 -11 14 0 25 4 25 10 0 5 16 16 35 24 19 8 38 23 42 33 4 10 22 39
40 64 39 54 115 218 109 233 -2 6 -5 3 -5 -6 -1 -10 -5 -18 -11 -18 -5 0 -10
-8 -11 -17 0 -10 -3 -13 -6 -6 -2 7 11 45 30 85 54 115 57 125 57 206 -1 75
-13 112 -38 112 -23 0 -31 40 -33 156 -1 123 6 157 37 185 39 34 103 33 141
-3z m-495 -644 c-4 -44 -27 -93 -48 -101 -8 -3 -30 3 -49 13 -28 15 -36 16
-49 5 -9 -8 -16 -20 -16 -27 0 -28 -30 -13 -60 30 -32 48 -39 86 -15 86 8 0
29 9 47 20 28 17 46 20 113 16 l80 -4 -3 -38z m-1592 -429 c270 -5 403 -15
419 -30 8 -8 20 -47 26 -87 7 -40 22 -127 34 -193 12 -66 27 -147 33 -180 5
-33 13 -80 18 -105 25 -145 31 -192 27 -203 -3 -6 -6 0 -6 15 -1 15 -5 30 -11
33 -5 3 -10 15 -10 26 0 10 -4 19 -10 19 -5 0 -10 -11 -10 -25 0 -14 -5 -25
-12 -25 -14 0 -88 -75 -88 -89 0 -6 -7 -11 -15 -11 -8 0 -15 -6 -15 -13 0 -8
-9 -22 -20 -32 -11 -10 -20 -23 -20 -30 0 -7 -9 -20 -20 -30 -11 -10 -20 -28
-20 -40 0 -12 -11 -32 -25 -45 -14 -13 -28 -39 -31 -59 -4 -20 -17 -47 -30
-60 -26 -25 -32 -51 -12 -51 9 0 9 -3 0 -12 -6 -6 -13 -10 -15 -7 -12 13 -87
129 -87 132 0 3 -18 35 -41 72 -22 37 -49 82 -59 99 -64 113 -93 157 -119 179
-43 36 -157 62 -273 62 l-96 0 -107 -54 c-79 -40 -109 -51 -118 -42 -14 14
-72 14 -169 1 -40 -5 -129 -14 -198 -20 -200 -18 -420 -48 -520 -72 -25 -6
-90 -29 -145 -50 l-100 -40 -85 11 c-47 6 -118 12 -158 14 -141 4 -67 47 183
105 312 73 485 96 960 123 110 6 203 14 207 18 4 3 -29 149 -73 324 -43 176
-79 327 -79 337 0 10 8 26 17 36 16 15 45 16 362 9 191 -3 420 -8 511 -10z
m2876 -2007 c-3 -18 -10 -51 -15 -73 -5 -22 -17 -80 -26 -130 -9 -49 -21 -99
-25 -110 -7 -18 -9 -17 -20 10 -14 35 -7 204 10 250 12 32 58 85 73 85 5 0 7
-14 3 -32z m-4330 -250 c-9 -13 -24 -40 -35 -60 -17 -34 -17 -38 -2 -52 22
-20 60 -34 162 -61 48 -12 97 -29 109 -38 l23 -16 -29 -7 c-42 -11 -166 10
-269 45 -49 17 -102 31 -117 31 -37 0 -36 18 5 72 36 47 121 108 151 108 17 0
17 -1 2 -22z m1615 -256 c58 -38 78 -62 103 -125 l21 -52 140 -5 c77 -3 136
-7 130 -9 -5 -2 8 -9 29 -15 22 -7 41 -17 43 -23 6 -17 -55 -21 -182 -13 -66
5 -122 7 -124 4 -2 -2 17 -54 42 -116 25 -62 45 -114 43 -116 -2 -2 -28 12
-58 31 -67 44 -135 67 -196 67 -26 0 -56 7 -66 15 -28 21 -43 19 -114 -15 -35
-17 -67 -30 -71 -30 -8 0 -23 32 -80 173 -36 88 -38 100 -28 133 8 26 25 47
55 68 62 44 97 54 188 55 72 1 85 -2 125 -27z m2674 -108 c13 -45 21 -154 12
-154 -2 0 -19 8 -38 18 -27 13 -65 18 -186 20 -117 3 -153 6 -153 16 0 8 27
21 63 31 123 34 212 74 235 105 12 16 22 35 22 42 1 25 29 -25 45 -78z m-3500
-1675 c69 -18 158 -68 220 -123 l60 -54 -3 -142 c-1 -78 -6 -159 -12 -181 -11
-38 -12 -39 -58 -39 -30 0 -59 8 -81 21 -57 34 -63 44 -56 91 7 49 -5 70 -75
144 -56 59 -114 98 -173 115 -32 9 -46 18 -42 27 3 8 5 26 5 42 0 37 42 79 95
96 52 16 71 16 120 3z"/>
<path d="M6116 7185 c-65 -23 -129 -100 -98 -118 6 -4 40 11 129 57 17 9 55
19 83 23 28 3 53 9 55 13 7 11 -70 40 -103 40 -15 -1 -44 -7 -66 -15z"/>
</g>
</svg>
